<?xml version="1.0" encoding="UTF-8"?> <svg xmlns="http://www.w3.org/2000/svg" xmlns:xlink="http://www.w3.org/1999/xlink" width="500" zoomAndPan="magnify" viewBox="0 0 375 93.749996" height="125" preserveAspectRatio="xMidYMid meet" version="1.2"><defs><clipPath id="87d137f3ee"><path d="M 17.074219 15.269531 L 105 15.269531 L 105 75 L 17.074219 75 Z M 17.074219 15.269531 "></path></clipPath></defs><g id="8182751246"><g clip-rule="nonzero" clip-path="url(#87d137f3ee)"><path style=" stroke:none;fill-rule:nonzero;fill:#66b2ee;fill-opacity:1;" d="M 74.019531 67.519531 L 70.203125 70.519531 C 60.550781 78.109375 46.359375 74.914062 40.945312 63.894531 L 17.074219 15.339844 L 26.902344 15.339844 C 34.417969 15.339844 41.277344 19.589844 44.570312 26.34375 L 60.3125 58.632812 C 61.460938 60.984375 63.136719 63.035156 65.242188 64.589844 C 67.355469 66.148438 70.253906 67.484375 73.90625 67.382812 C 73.058594 66.316406 72.3125 65.175781 71.683594 63.898438 L 47.808594 15.339844 L 57.636719 15.339844 C 65.15625 15.339844 72.015625 19.589844 75.308594 26.34375 L 91.050781 58.632812 C 92.195312 60.984375 93.875 63.035156 95.976562 64.589844 C 98.148438 66.191406 101.148438 67.5625 104.945312 67.371094 L 100.9375 70.519531 C 92.460938 77.1875 80.472656 75.5 74.019531 67.519531 Z M 94.183594 35.949219 L 104.957031 15.269531 L 78.042969 15.277344 L 88.429688 35.910156 C 89.617188 38.265625 92.96875 38.289062 94.183594 35.949219 Z M 94.183594 35.949219 "></path></g><g style="fill:#2f2e48;fill-opacity:1;"><g transform="translate(123.940097, 66.820951)"><path style="stroke:none" d="M 61.828125 -41.546875 L 51.625 0 L 37.421875 0 L 31.703125 -25.46875 L 25.875 0 L 11.671875 0 L 1.59375 -41.546875 L 14.09375 -41.546875 L 18.921875 -13.140625 L 25.46875 -41.546875 L 38.125 -41.546875 L 44.5 -13.375 L 49.328125 -41.546875 Z M 61.828125 -41.546875 "></path></g></g><g style="fill:#2f2e48;fill-opacity:1;"><g transform="translate(187.350127, 66.820951)"><path style="stroke:none" d="M 9.140625 -36.125 C 7.097656 -36.125 5.457031 -36.679688 4.21875 -37.796875 C 2.976562 -38.921875 2.359375 -40.328125 2.359375 -42.015625 C 2.359375 -43.742188 2.976562 -45.175781 4.21875 -46.3125 C 5.457031 -47.457031 7.097656 -48.03125 9.140625 -48.03125 C 11.140625 -48.03125 12.757812 -47.457031 14 -46.3125 C 15.238281 -45.175781 15.859375 -43.742188 15.859375 -42.015625 C 15.859375 -40.328125 15.238281 -38.921875 14 -37.796875 C 12.757812 -36.679688 11.140625 -36.125 9.140625 -36.125 Z M 14.859375 -33.0625 L 14.859375 0 L 3.296875 0 L 3.296875 -33.0625 Z M 14.859375 -33.0625 "></path></g></g><g style="fill:#2f2e48;fill-opacity:1;"><g transform="translate(205.500951, 66.820951)"><path style="stroke:none" d="M 22.8125 -9.84375 L 22.8125 0 L 17.796875 0 C 9.347656 0 5.125 -4.179688 5.125 -12.546875 L 5.125 -23.453125 L 1.0625 -23.453125 L 1.0625 -33.0625 L 5.125 -33.0625 L 5.125 -41.078125 L 16.734375 -41.078125 L 16.734375 -33.0625 L 22.75 -33.0625 L 22.75 -23.453125 L 16.734375 -23.453125 L 16.734375 -12.375 C 16.734375 -11.46875 16.9375 -10.816406 17.34375 -10.421875 C 17.757812 -10.035156 18.460938 -9.84375 19.453125 -9.84375 Z M 22.8125 -9.84375 "></path></g></g><g style="fill:#2f2e48;fill-opacity:1;"><g transform="translate(230.311015, 66.820951)"><path style="stroke:none" d="M 25.046875 -33.359375 C 28.816406 -33.359375 31.8125 -32.085938 34.03125 -29.546875 C 36.25 -27.015625 37.359375 -23.585938 37.359375 -19.265625 L 37.359375 0 L 25.8125 0 L 25.8125 -17.734375 C 25.8125 -19.617188 25.320312 -21.101562 24.34375 -22.1875 C 23.363281 -23.269531 22.046875 -23.8125 20.390625 -23.8125 C 18.660156 -23.8125 17.304688 -23.269531 16.328125 -22.1875 C 15.347656 -21.101562 14.859375 -19.617188 14.859375 -17.734375 L 14.859375 0 L 3.296875 0 L 3.296875 -43.609375 L 14.859375 -43.609375 L 14.859375 -28.34375 C 15.878906 -29.84375 17.257812 -31.050781 19 -31.96875 C 20.75 -32.894531 22.765625 -33.359375 25.046875 -33.359375 Z M 25.046875 -33.359375 "></path></g></g><g style="fill:#2f2e48;fill-opacity:1;"><g transform="translate(270.737859, 66.820951)"><path style="stroke:none" d="M 14.859375 -8.84375 L 27.765625 -8.84375 L 27.765625 0 L 3.296875 0 L 3.296875 -41.546875 L 14.859375 -41.546875 Z M 14.859375 -8.84375 "></path></g></g><g style="fill:#2f2e48;fill-opacity:1;"><g transform="translate(299.673105, 66.820951)"><path style="stroke:none" d="M 9.140625 -36.125 C 7.097656 -36.125 5.457031 -36.679688 4.21875 -37.796875 C 2.976562 -38.921875 2.359375 -40.328125 2.359375 -42.015625 C 2.359375 -43.742188 2.976562 -45.175781 4.21875 -46.3125 C 5.457031 -47.457031 7.097656 -48.03125 9.140625 -48.03125 C 11.140625 -48.03125 12.757812 -47.457031 14 -46.3125 C 15.238281 -45.175781 15.859375 -43.742188 15.859375 -42.015625 C 15.859375 -40.328125 15.238281 -38.921875 14 -37.796875 C 12.757812 -36.679688 11.140625 -36.125 9.140625 -36.125 Z M 14.859375 -33.0625 L 14.859375 0 L 3.296875 0 L 3.296875 -33.0625 Z M 14.859375 -33.0625 "></path></g></g><g style="fill:#2f2e48;fill-opacity:1;"><g transform="translate(317.82393, 66.820951)"><path style="stroke:none" d="M 1.421875 -16.5625 C 1.421875 -19.976562 2.035156 -22.960938 3.265625 -25.515625 C 4.503906 -28.066406 6.191406 -30.03125 8.328125 -31.40625 C 10.472656 -32.78125 12.863281 -33.46875 15.5 -33.46875 C 17.78125 -33.46875 19.742188 -33.015625 21.390625 -32.109375 C 23.046875 -31.210938 24.320312 -30 25.21875 -28.46875 L 25.21875 -33.0625 L 36.78125 -33.0625 L 36.78125 0 L 25.21875 0 L 25.21875 -4.59375 C 24.320312 -3.0625 23.035156 -1.84375 21.359375 -0.9375 C 19.691406 -0.0390625 17.738281 0.40625 15.5 0.40625 C 12.863281 0.40625 10.472656 -0.28125 8.328125 -1.65625 C 6.191406 -3.03125 4.503906 -5.003906 3.265625 -7.578125 C 2.035156 -10.148438 1.421875 -13.144531 1.421875 -16.5625 Z M 25.21875 -16.5625 C 25.21875 -18.6875 24.640625 -20.351562 23.484375 -21.5625 C 22.328125 -22.78125 20.90625 -23.390625 19.21875 -23.390625 C 17.488281 -23.390625 16.050781 -22.789062 14.90625 -21.59375 C 13.769531 -20.394531 13.203125 -18.71875 13.203125 -16.5625 C 13.203125 -14.4375 13.769531 -12.753906 14.90625 -11.515625 C 16.050781 -10.285156 17.488281 -9.671875 19.21875 -9.671875 C 20.90625 -9.671875 22.328125 -10.273438 23.484375 -11.484375 C 24.640625 -12.703125 25.21875 -14.394531 25.21875 -16.5625 Z M 25.21875 -16.5625 "></path></g></g></g></svg>